<?xml version="1.0" standalone="no"?>
<!DOCTYPE svg PUBLIC "-//W3C//DTD SVG 20010904//EN"
 "http://www.w3.org/TR/2001/REC-SVG-20010904/DTD/svg10.dtd">
<svg version="1.0" xmlns="http://www.w3.org/2000/svg"
 width="1024.000000pt" height="1024.000000pt" viewBox="0 0 1024.000000 1024.000000"
 preserveAspectRatio="xMidYMid meet">

<g transform="translate(0.000000,1024.000000) scale(0.100000,-0.100000)"
fill="#000000" stroke="none">
<path d="M0 5120 l0 -5120 5120 0 5120 0 0 5120 0 5120 -5120 0 -5120 0 0
-5120z m5346 3660 c401 -32 777 -121 1125 -266 146 -61 445 -213 574 -291 427
-261 847 -655 1138 -1066 256 -361 449 -779 562 -1212 75 -288 104 -494 112
-786 16 -587 -110 -1150 -377 -1694 -190 -388 -413 -689 -762 -1031 -255 -249
-484 -422 -791 -593 -511 -285 -1019 -438 -1607 -482 -340 -25 -812 29 -1181
137 -387 112 -866 340 -1168 556 -355 254 -670 567 -918 914 -294 410 -504
887 -603 1368 -56 274 -75 465 -74 761 0 266 12 391 60 635 105 533 293 970
617 1432 227 323 552 652 892 899 291 212 703 421 1068 543 234 78 540 144
772 166 61 5 126 12 145 13 81 8 296 6 416 -3z"/>
<path d="M4560 8600 c-38 -38 -12 -100 42 -100 24 0 58 35 58 60 0 26 -34 60
-60 60 -11 0 -29 -9 -40 -20z"/>
<path d="M5575 8604 c-25 -25 -16 -75 18 -94 24 -13 30 -13 55 0 53 30 33 110
-29 110 -15 0 -35 -7 -44 -16z"/>
<path d="M4903 8580 c-37 -15 -63 -68 -63 -127 l0 -52 -153 -3 c-149 -3 -154
-4 -218 -35 -80 -39 -150 -111 -187 -191 l-27 -57 -3 -431 c-3 -504 -5 -494
97 -606 87 -94 140 -117 291 -125 l120 -6 0 -94 0 -93 -305 0 -306 0 -24 -25
c-30 -29 -31 -45 -5 -73 21 -22 25 -22 330 -22 l310 0 0 -70 0 -69 -503 -3
-502 -3 -67 -33 c-80 -39 -145 -102 -184 -180 l-29 -57 -6 -400 c-3 -220 -7
-401 -8 -402 -2 -5 -127 -3 -147 3 -21 6 -21 9 -28 501 l-8 495 29 41 28 40
-3 160 c-1 88 -5 163 -8 166 -3 3 -23 6 -45 6 -43 0 -59 -14 -59 -52 0 -36
-16 -27 -26 15 -8 32 -13 37 -40 40 -20 2 -38 -3 -49 -14 -15 -16 -17 -35 -13
-163 4 -147 10 -174 49 -216 17 -19 18 -53 21 -545 2 -404 6 -530 16 -547 26
-47 48 -50 390 -58 288 -6 326 -5 347 9 l25 16 0 385 c0 360 1 385 18 385 9 0
202 1 427 2 226 2 740 2 1143 1 l732 -3 0 -670 0 -670 -100 0 c-87 0 -103 -3
-120 -20 -27 -27 -25 -55 6 -79 25 -20 39 -21 291 -21 l264 0 -3 -277 -3 -278
-30 -54 c-16 -29 -47 -68 -69 -87 -75 -64 -67 -64 -739 -66 -334 -2 -607 0
-607 3 0 4 11 14 25 23 13 9 29 33 34 53 14 50 -10 101 -59 125 -34 17 -13 18
563 18 640 0 640 0 667 49 6 11 10 89 10 180 l0 161 -59 0 c-71 0 -71 1 -71
-152 l0 -108 -1160 0 -1160 0 -2 463 -3 462 -335 0 c-456 0 -425 26 -425 -355
0 -274 2 -284 53 -318 21 -13 48 -17 130 -17 l103 0 5 -200 c6 -224 15 -269
70 -341 19 -24 34 -46 34 -49 0 -2 -62 -6 -137 -7 l-138 -3 -13 -28 c-28 -58
43 -217 131 -293 97 -83 175 -104 387 -104 l150 0 0 -79 0 -78 -66 -6 c-37 -4
-74 -2 -85 3 -10 6 -35 10 -57 10 -48 0 -72 -23 -79 -79 -5 -37 -3 -41 28 -60
40 -25 71 -26 102 -7 16 11 40 13 88 9 l67 -6 6 -51 c3 -28 6 -155 6 -283 0
-228 0 -232 22 -247 30 -21 50 -20 76 4 22 20 22 26 22 300 l0 280 65 0 65 0
0 -65 c0 -57 3 -69 25 -90 29 -30 45 -31 75 -7 22 18 22 24 24 233 l1 214 875
3 c481 1 880 0 885 -2 6 -2 9 -35 7 -80 l-4 -76 -627 0 c-551 0 -629 -2 -649
-16 -19 -13 -22 -24 -22 -82 0 -114 -11 -174 -31 -179 -11 -3 -17 -9 -14 -13
12 -20 -26 -17 -40 3 -14 20 -23 22 -103 20 -101 -2 -153 -18 -227 -71 -65
-45 -109 -98 -144 -172 l-26 -55 0 -320 0 -320 33 -68 c44 -89 113 -156 208
-204 l77 -37 158 -1 159 0 6 -35 c9 -57 13 -66 44 -109 83 -114 274 -131 381
-34 47 43 66 76 75 132 l7 41 117 0 c64 0 142 5 171 10 126 24 254 122 311
238 l33 67 3 299 c3 276 2 304 -17 365 -24 78 -92 169 -163 215 l-47 31 0 88
-1 89 168 -2 c247 -2 240 -3 267 25 24 23 25 30 25 139 l0 114 193 4 193 3 76
38 c129 63 226 188 236 304 7 81 4 83 -164 83 -79 0 -144 4 -144 8 0 5 9 17
21 28 12 10 35 46 52 79 29 57 31 68 35 197 5 161 -10 148 165 148 104 0 123
-3 165 -24 65 -32 97 -38 141 -26 118 31 181 148 137 253 -18 44 -77 94 -126
107 -50 13 -110 -1 -159 -37 -35 -27 -70 -92 -71 -130 0 -23 -2 -23 -125 -23
l-125 0 0 95 0 95 28 5 c15 4 35 8 44 10 9 1 25 -3 35 -11 48 -36 133 3 133
61 0 56 -77 94 -125 62 -12 -8 -38 -12 -67 -9 l-48 4 0 369 0 368 241 3 241 3
29 33 29 32 0 148 0 147 274 -3 c283 -4 301 -2 403 39 31 12 34 11 62 -15 25
-24 35 -27 65 -22 23 4 42 16 53 33 16 24 16 27 -4 64 l-21 39 35 37 c216 231
208 585 -17 809 -30 31 -74 67 -97 81 l-43 25 0 143 c0 162 -7 181 -71 191
-49 8 -93 -28 -91 -77 0 -18 8 -39 16 -45 12 -8 16 -29 16 -83 l0 -72 -47 3
-48 3 -1 124 c-1 108 -4 126 -20 138 -30 22 -70 16 -93 -13 -18 -23 -21 -41
-21 -134 0 -89 -3 -109 -16 -114 -9 -3 -77 -6 -153 -6 -159 0 -212 -12 -311
-70 -70 -41 -158 -127 -208 -201 -41 -61 -80 -179 -88 -265 -16 -186 87 -395
256 -519 l50 -37 0 -118 c0 -64 -3 -132 -6 -149 l-6 -31 -204 0 -203 0 -3 298
-3 297 -32 66 c-40 81 -113 156 -191 195 -53 27 -66 29 -194 32 l-138 4 0 78
c0 56 7 102 24 157 14 43 28 96 31 118 12 75 15 83 37 88 13 4 29 0 38 -8 23
-21 64 -19 83 3 22 25 21 75 -1 95 -23 21 -75 22 -92 2 -16 -20 -46 -19 -54 1
-3 9 -6 156 -6 328 0 347 0 350 -60 344 -59 -5 -60 -11 -60 -427 0 -403 -4
-443 -56 -536 -20 -37 -22 -50 -17 -143 l6 -102 -67 0 -66 0 0 61 c0 51 4 66
25 91 30 36 31 57 5 86 -19 21 -30 22 -160 22 l-140 0 0 95 0 94 38 7 c56 10
134 50 184 93 66 58 107 142 118 243 13 109 12 684 0 771 -13 87 -55 170 -117
228 -101 96 -149 111 -354 110 l-157 -1 -4 67 c-4 59 -7 69 -36 94 l-32 29
-178 -1 c-97 0 -187 -4 -199 -9z m307 -145 l0 -34 -115 1 -115 0 0 28 c0 34 1
34 133 37 l97 3 0 -35z m480 -186 c30 -14 70 -41 88 -60 69 -70 67 -52 70
-496 3 -393 2 -403 -19 -452 -26 -61 -89 -122 -150 -145 -40 -15 -96 -16 -574
-14 l-530 3 -48 25 c-55 27 -101 76 -126 129 -14 31 -16 88 -16 436 0 348 2
405 16 436 22 47 74 106 113 126 79 41 92 42 616 40 l505 -2 55 -26z m-680
-1429 c0 -117 2 -132 20 -150 11 -11 27 -20 35 -20 8 0 24 9 35 20 18 18 20
33 20 150 l0 130 60 0 60 0 0 -225 0 -225 -175 0 -175 0 0 225 0 225 60 0 60
0 0 -130z m500 -79 c0 -115 -3 -216 -6 -225 -5 -12 -21 -16 -70 -16 l-64 0 0
225 0 225 70 0 70 0 0 -209z m2288 129 c126 -18 256 -123 320 -257 36 -75 37
-82 37 -188 0 -103 -2 -114 -31 -175 -38 -78 -117 -168 -180 -205 -44 -26 -52
-27 -145 -23 -54 2 -93 0 -86 -4 7 -4 39 -8 72 -8 57 -1 59 -1 35 -15 -20 -11
-69 -14 -225 -13 -110 0 -189 3 -175 5 14 2 32 6 40 9 8 3 38 7 65 10 63 5 83
8 91 17 4 4 19 7 33 7 14 0 52 11 83 24 189 78 286 250 255 453 -10 70 -11 72
-41 75 -27 3 -33 9 -50 57 -25 69 -72 115 -155 154 -58 28 -77 31 -156 31 -97
1 -137 -12 -162 -51 -14 -20 -13 -24 10 -47 23 -23 26 -24 80 -11 165 38 320
-58 363 -226 15 -58 15 -67 -1 -126 -29 -107 -97 -176 -205 -209 -114 -35
-252 1 -327 84 -46 51 -68 112 -68 192 0 65 4 85 34 144 33 67 33 70 15 83
-55 40 -96 19 -134 -69 -94 -219 23 -469 255 -544 l40 -13 -45 0 c-25 0 -75
-3 -112 -7 -86 -8 -133 13 -219 99 -103 104 -151 239 -129 365 32 183 194 359
354 382 74 11 390 11 464 0z m-2018 -300 l0 -70 -70 0 -70 0 0 70 0 70 70 0
70 0 0 -70z m668 -227 c57 -27 89 -63 124 -139 22 -47 23 -63 26 -324 l4 -275
-47 -2 c-55 -2 -71 -13 -77 -53 -6 -40 15 -58 72 -62 l45 -3 0 -365 0 -365
-103 -3 -102 -3 0 408 c0 224 0 542 0 705 l0 297 -24 28 c-22 25 -33 29 -108
35 -45 4 -108 11 -138 16 -44 7 -57 6 -65 -5 -9 -12 -46 -14 -207 -11 -127 2
-201 7 -208 14 -12 12 -84 8 -112 -7 -9 -5 -155 -9 -325 -9 -248 1 -313 3
-333 15 -33 19 -98 19 -116 0 -13 -13 -77 -15 -450 -15 l-436 0 -29 -29 -29
-29 0 -372 0 -371 -107 3 -108 3 4 364 c2 277 6 373 17 403 20 58 63 112 114
144 l45 29 1250 5 c687 3 1277 4 1310 2 37 -2 80 -13 113 -29z m1079 -319 c-3
-3 -12 -4 -19 -1 -8 3 -5 6 6 6 11 1 17 -2 13 -5z m-157 -24 c-20 -13 -53 -13
-45 0 3 6 18 10 33 10 21 0 24 -2 12 -10z m-3902 -1201 l-3 -214 -80 0 -80 0
0 215 0 215 75 5 c41 3 78 2 83 -1 4 -3 6 -102 5 -220z m342 -219 c3 -239 9
-441 14 -449 25 -39 52 -41 678 -42 398 0 592 -4 570 -10 -20 -6 -40 -22 -52
-42 -32 -51 -25 -102 21 -152 l19 -21 -613 4 c-513 2 -620 6 -659 18 -63 21
-140 91 -166 153 -21 47 -22 63 -22 507 0 253 0 463 0 467 0 4 46 6 103 5
l102 -3 5 -435z m3395 -75 c31 -30 31 -54 4 -89 -29 -36 -77 -33 -99 6 -13 25
-13 31 4 62 16 31 29 40 59 45 4 0 19 -10 32 -24z m-2615 -775 c0 -5 -6 -13
-13 -17 -6 -4 -41 -41 -76 -81 l-64 -73 -411 3 c-446 3 -427 1 -508 61 -25 18
-88 98 -88 111 0 3 261 6 580 6 360 0 580 -4 580 -10z m922 -78 l67 -87 -239
-3 c-132 -1 -348 -1 -479 0 l-239 3 72 87 71 87 340 0 340 0 67 -87z m1252 79
c13 -20 -73 -109 -135 -140 l-62 -31 -403 0 -403 0 -57 73 c-32 39 -64 80 -72
90 -14 16 13 17 556 17 331 0 573 -4 576 -9z m-2554 -381 l0 -80 -65 0 -65 0
0 80 0 80 65 0 65 0 0 -80z m1148 -272 l-3 -73 -212 -3 c-198 -2 -213 -1 -214
15 -2 38 3 118 7 125 3 5 100 8 215 8 l210 0 -3 -72z m280 -6 l3 -72 -60 0
c-88 0 -91 2 -91 74 0 35 3 66 7 70 4 4 37 6 73 4 l65 -4 3 -72z m-758 -257
l0 -65 -160 0 c-176 0 -207 -7 -255 -56 -38 -40 -52 -78 -60 -161 -4 -40 -13
-74 -19 -76 -7 -3 -11 -18 -10 -33 1 -16 3 -58 5 -94 l2 -65 7 55 c4 35 7 -12
8 -130 l2 -185 -23 35 c-20 31 -23 51 -28 210 -3 96 -5 228 -4 292 2 110 4
121 34 182 34 70 84 117 148 141 26 9 87 14 196 14 l157 1 0 -65z m320 0 l0
-65 -90 0 -90 0 0 65 0 65 90 0 90 0 0 -65z m516 38 c60 -32 122 -106 140
-169 12 -43 15 -103 12 -321 -3 -255 -4 -270 -25 -310 -13 -23 -26 -44 -30
-46 -5 -3 -8 131 -8 296 0 294 -1 303 -22 344 -13 23 -39 54 -60 70 -36 28
-37 28 -210 31 l-173 4 0 65 0 65 168 -4 c149 -3 171 -6 208 -25z m-100 -233
c54 -21 56 -35 55 -357 -2 -332 -1 -328 -72 -366 -32 -18 -61 -18 -513 -13
-513 7 -526 8 -540 58 -3 13 -6 156 -6 318 0 274 1 297 19 327 15 24 28 32 53
35 79 7 984 5 1004 -2z m-405 -902 c-10 -47 -63 -81 -116 -74 -44 5 -95 52
-95 86 0 19 7 20 109 20 l108 0 -6 -32z"/>
<path d="M4576 8170 c-28 -5 -51 -20 -78 -48 l-38 -41 0 -383 c0 -362 1 -385
20 -415 10 -17 28 -37 40 -43 27 -14 1143 -14 1171 0 10 6 31 27 46 47 l28 36
-1 373 c-2 362 -2 374 -23 407 -46 76 -15 72 -601 74 -289 0 -543 -2 -564 -7z
m1049 -134 c14 -20 15 -67 13 -344 -2 -176 -6 -323 -9 -326 -11 -11 -1019 -10
-1029 0 -7 7 -10 124 -8 343 3 282 5 333 18 341 9 6 215 10 507 10 l493 0 15
-24z"/>
<path d="M4671 7986 c-25 -27 -24 -54 4 -91 14 -17 18 -18 38 -5 18 11 88 13
401 11 215 -1 387 -6 397 -11 40 -22 66 52 33 98 l-15 22 -418 0 -418 0 -22
-24z"/>
<path d="M5275 7765 c-37 -36 -32 -70 12 -93 25 -14 53 -6 53 14 0 8 5 14 10
14 20 0 10 59 -12 74 -30 21 -35 20 -63 -9z"/>
<path d="M4680 7761 c-5 -11 -10 -32 -10 -46 0 -23 2 -25 15 -11 8 8 15 26 15
41 0 14 4 24 10 20 5 -3 7 -13 4 -23 -5 -13 -4 -14 4 -4 5 8 12 13 16 12 16
-4 29 7 22 18 -12 20 -64 14 -76 -7z"/>
<path d="M4867 7762 c-22 -24 -21 -55 1 -75 27 -24 58 -21 81 9 26 33 26 38
-1 64 -27 25 -60 26 -81 2z"/>
<path d="M5453 7765 c-35 -39 2 -114 48 -100 28 9 54 34 45 42 -3 4 -12 -2
-19 -12 -13 -17 -14 -17 -21 0 -8 22 -4 27 27 29 25 1 26 15 4 44 -13 16 -69
15 -84 -3z"/>
<path d="M4681 7566 c-48 -51 -2 -136 64 -118 66 18 73 102 10 128 -45 18 -48
18 -74 -10z"/>
<path d="M5470 7583 c-52 -18 -55 -114 -4 -133 47 -18 104 19 104 68 0 41 -59
79 -100 65z"/>
<path d="M5013 7562 c-29 -4 -45 -26 -45 -59 0 -44 24 -53 149 -53 110 0 113
1 129 26 13 19 15 32 8 52 -9 26 -11 27 -114 32 -58 3 -115 4 -127 2z"/>
<path d="M7520 6672 c-19 -10 -41 -31 -48 -46 -13 -25 -16 -26 -62 -20 l-48 6
-28 -53 c-55 -106 -31 -257 51 -327 145 -122 354 -84 440 82 80 156 -35 358
-212 373 -45 3 -66 0 -93 -15z m127 -99 c19 -9 49 -35 65 -57 26 -36 29 -47
26 -94 -7 -85 -62 -141 -146 -150 -136 -13 -228 128 -158 242 42 70 135 96
213 59z"/>
<path d="M7658 6013 c6 -2 18 -2 25 0 6 3 1 5 -13 5 -14 0 -19 -2 -12 -5z"/>
<path d="M4383 2170 c0 -41 2 -58 4 -37 2 20 2 54 0 75 -2 20 -4 3 -4 -38z"/>
<path d="M5004 2501 c-105 -48 -167 -141 -167 -252 0 -237 286 -346 458 -174
50 50 67 90 73 166 3 52 0 75 -16 112 -23 52 -39 58 -82 27 -28 -20 -29 -22
-23 -90 7 -83 -5 -116 -52 -149 -128 -87 -282 38 -221 182 7 18 30 47 51 66
36 31 42 33 89 27 28 -3 62 -7 76 -8 17 -2 25 3 28 15 2 10 0 17 -5 16 -22 -4
-31 4 -48 41 -18 39 -19 40 -69 40 -28 0 -70 -9 -92 -19z"/>
<path d="M4635 2465 c-45 -44 -26 -121 31 -126 47 -5 65 2 84 34 26 43 25 53
-9 88 -36 36 -73 37 -106 4z"/>
<path d="M5466 2469 c-55 -43 -22 -133 49 -133 46 0 75 31 75 79 0 38 -37 75
-75 75 -12 0 -34 -9 -49 -21z"/>
<path d="M5062 2307 c-30 -32 -28 -71 4 -96 15 -12 32 -21 39 -21 7 0 24 9 39
21 35 28 35 70 0 98 -34 27 -55 26 -82 -2z"/>
<path d="M4654 2092 c-15 -10 -34 -47 -34 -67 0 -25 46 -65 75 -65 33 0 75 42
75 75 0 35 -33 65 -72 65 -18 0 -38 -4 -44 -8z"/>
<path d="M5450 2080 c-27 -27 -25 -66 5 -95 30 -30 54 -31 89 -4 32 25 36 77
8 102 -25 23 -78 21 -102 -3z"/>
<path d="M4243 8540 c-70 -28 -44 -150 32 -150 32 0 85 50 85 80 0 27 -52 80
-77 79 -10 0 -28 -4 -40 -9z"/>
<path d="M5971 8514 c-39 -50 -16 -108 46 -120 27 -5 37 -1 63 24 36 37 38 65
5 97 -34 35 -86 34 -114 -1z"/>
<path d="M3935 8346 c-86 -38 -119 -139 -72 -220 42 -73 129 -96 200 -53 52
31 77 72 77 125 0 115 -107 192 -205 148z m85 -110 c28 -35 -11 -93 -47 -70
-36 22 -23 84 17 84 10 0 23 -7 30 -14z"/>
<path d="M6253 8339 c-107 -53 -113 -205 -11 -270 43 -27 122 -22 167 10 94
67 82 210 -23 260 -53 26 -80 26 -133 0z m101 -111 c13 -19 14 -25 2 -43 -26
-39 -76 -26 -76 19 0 46 48 62 74 24z"/>
<path d="M3548 8250 c-25 -26 -29 -36 -24 -63 8 -41 39 -67 80 -67 35 1 57 15
74 47 18 34 14 52 -17 84 -39 38 -74 38 -113 -1z"/>
<path d="M6690 8112 c-121 -32 -231 -118 -288 -226 l-27 -51 -3 -280 c-4 -308
-1 -335 51 -386 53 -53 99 -69 208 -69 l96 0 6 -67 c4 -53 10 -71 27 -85 56
-46 102 -8 108 88 l4 64 88 0 c114 0 179 30 225 105 l30 48 0 286 c0 279 -1
287 -24 346 -30 75 -118 165 -194 200 -101 47 -199 55 -307 27z m175 -123 c33
-6 71 -17 85 -24 42 -22 92 -78 116 -130 23 -48 24 -60 23 -270 -1 -252 -8
-292 -56 -316 -27 -13 -66 -16 -247 -13 -118 1 -225 5 -236 9 -41 13 -50 60
-50 265 l0 191 51 -43 51 -42 19 24 c31 41 24 63 -41 124 -51 49 -58 60 -50
77 6 10 14 19 17 19 4 0 37 -29 74 -65 l67 -65 43 16 c31 11 62 14 102 10 31
-3 57 -2 57 2 0 16 -96 80 -134 91 -37 10 -116 74 -116 94 0 15 64 37 161 56
3 1 32 -4 64 -10z"/>
<path d="M6965 7754 c-18 -18 -17 -23 9 -119 33 -121 -17 -214 -132 -245 -52
-14 -92 -6 -151 27 -50 29 -77 23 -100 -20 -12 -22 -12 -29 -1 -43 27 -32 96
-71 145 -83 134 -31 301 64 336 191 6 23 9 81 7 129 -3 78 -6 92 -33 131 -35
49 -55 57 -80 32z"/>
<path d="M6766 7710 c-82 -26 -123 -130 -81 -210 17 -34 82 -70 125 -70 72 0
158 98 145 164 -6 33 -47 91 -73 105 -28 15 -85 21 -116 11z m78 -112 c16 -26
-4 -53 -40 -53 -23 0 -30 5 -32 23 -7 47 47 69 72 30z"/>
<path d="M6621 7290 c-7 -4 1 -7 18 -8 17 0 31 1 31 3 0 7 -39 12 -49 5z"/>
<path d="M3385 8040 c-71 -16 -127 -64 -154 -129 l-13 -31 -125 0 c-210 0
-233 -22 -233 -222 l0 -127 -42 -3 c-43 -3 -43 -3 -52 -51 -10 -58 -4 -67 53
-74 l41 -6 0 -81 c0 -95 19 -140 71 -171 29 -17 52 -20 157 -20 l124 0 13 -38
c46 -135 188 -188 297 -111 39 27 78 85 91 133 5 20 11 21 126 21 193 0 221
21 229 177 l5 93 69 0 c60 0 72 3 93 25 61 60 7 115 -111 115 l-54 0 -1 113
c0 132 -12 173 -58 204 -31 21 -45 23 -167 23 -129 0 -133 1 -140 22 -29 94
-132 158 -219 138z m77 -147 c8 -10 18 -31 22 -46 6 -25 3 -30 -24 -40 -16 -6
-30 -14 -30 -18 0 -3 18 -12 41 -19 45 -15 129 -90 129 -115 0 -12 -8 -8 -25
13 -63 75 -167 82 -222 14 -21 -26 -16 -29 47 -34 51 -4 65 -9 93 -36 40 -39
69 -41 96 -6 l20 25 10 -38 c44 -157 -75 -312 -221 -289 -115 19 -188 106
-188 224 1 93 51 177 138 233 38 24 41 28 23 34 -11 3 -23 15 -26 25 -7 21 18
75 37 83 28 11 66 6 80 -10z m-292 -149 c0 -3 -11 -20 -24 -37 -53 -71 -70
-118 -70 -197 0 -61 5 -87 28 -137 16 -34 37 -70 47 -79 11 -9 19 -21 19 -26
0 -4 -38 -8 -83 -8 l-84 0 -6 237 c-3 131 -3 241 -1 245 6 9 174 11 174 2z
m663 -8 c6 -16 -1 -421 -8 -453 -5 -21 -11 -23 -69 -23 -97 0 -101 4 -61 55
47 63 69 134 62 210 -5 69 -43 163 -76 192 -12 9 -21 21 -21 25 0 5 38 8 84 8
61 0 85 -4 89 -14z m-357 -612 c-8 -32 -49 -58 -81 -50 -27 7 -39 25 -50 73
l-6 32 68 3 c74 3 82 -4 69 -58z"/>
<path d="M3350 7528 c-26 -44 -25 -54 9 -89 36 -35 69 -37 105 -4 53 49 19
125 -57 125 -31 0 -41 -5 -57 -32z"/>
<path d="M3698 7273 c12 -2 32 -2 45 0 12 2 2 4 -23 4 -25 0 -35 -2 -22 -4z"/>
<path d="M3778 7273 c6 -2 18 -2 25 0 6 3 1 5 -13 5 -14 0 -19 -2 -12 -5z"/>
<path d="M6134 7945 c-31 -47 7 -104 60 -91 20 5 46 42 46 66 0 19 -40 50 -65
50 -15 0 -31 -9 -41 -25z"/>
<path d="M7365 7687 c-19 -19 -37 -46 -41 -60 -17 -69 31 -151 96 -166 140
-31 218 148 104 238 -19 15 -41 21 -76 21 -43 0 -55 -5 -83 -33z m110 -77 c11
-18 -6 -50 -26 -50 -22 0 -34 22 -25 45 6 17 42 20 51 5z"/>
<path d="M2585 7515 c-31 -30 -32 -56 -2 -91 46 -53 127 -26 127 43 0 68 -76
98 -125 48z"/>
<path d="M7399 7275 c-32 -17 -41 -46 -27 -86 27 -78 138 -56 138 28 0 53 -62
86 -111 58z"/>
<path d="M2417 7224 c-67 -21 -122 -78 -142 -149 -9 -30 -19 -55 -23 -55 -42
0 -129 -24 -154 -41 -17 -12 -42 -46 -55 -75 l-24 -54 3 -369 3 -369 30 -43
c17 -23 50 -53 74 -66 39 -20 58 -23 167 -23 l122 0 7 -41 c8 -45 38 -79 70
-79 33 0 65 41 65 83 l0 37 128 0 c148 0 191 14 238 76 l29 37 0 402 0 401
-25 37 c-36 53 -86 77 -159 77 -40 0 -63 4 -66 13 -2 6 -9 31 -15 55 -20 77
-101 145 -187 156 -21 3 -59 -1 -86 -10z m97 -124 c27 -10 61 -64 51 -80 -6
-10 -175 -14 -175 -5 0 3 7 21 15 40 19 48 60 64 109 45z m265 -216 c62 -13
65 -32 58 -358 -4 -159 -9 -291 -12 -294 -9 -9 -45 36 -45 56 0 11 7 25 16 32
8 8 14 25 12 39 -2 20 -11 28 -43 37 -62 18 -79 4 -72 -58 5 -41 3 -55 -15
-78 -18 -25 -19 -33 -9 -58 24 -57 88 -68 132 -21 l29 31 0 -26 c0 -15 -11
-38 -25 -52 l-24 -24 -288 6 c-158 3 -294 7 -300 9 -7 3 -13 9 -13 15 0 6 4 9
9 6 11 -7 68 21 74 37 2 6 1 59 -4 117 -13 178 -14 175 26 199 43 25 44 48 4
87 l-31 29 6 90 c4 50 3 95 -2 102 -10 16 -52 5 -52 -14 0 -9 -5 -11 -12 -7
-9 5 -9 2 1 -9 7 -9 9 -17 3 -17 -5 0 -12 -9 -15 -20 -3 -11 0 -18 6 -17 6 1
12 -2 12 -8 6 -49 19 -85 31 -85 8 0 14 -4 14 -10 0 -5 -11 -10 -25 -10 -28 0
-45 -25 -45 -70 0 -24 7 -35 30 -48 23 -13 30 -24 30 -49 0 -35 -23 -50 -60
-38 -23 7 -23 4 -22 264 1 217 -3 209 131 214 196 6 460 7 490 1z"/>
<path d="M2653 6744 c-46 -30 -52 -39 -58 -78 -8 -52 9 -90 57 -131 53 -45 78
-50 106 -21 35 35 24 69 -29 90 -32 13 -40 21 -37 38 2 14 13 24 32 29 50 14
63 66 24 93 -30 21 -35 20 -95 -20z"/>
<path d="M2385 6738 c-40 -22 -47 -64 -17 -91 29 -26 68 -21 90 11 22 29 17
53 -16 80 -19 15 -31 15 -57 0z"/>
<path d="M2491 6590 c-56 -6 -72 -29 -51 -68 12 -20 25 -28 51 -30 47 -4 74
24 64 67 -8 37 -9 38 -64 31z"/>
<path d="M2322 6377 c-29 -31 -28 -51 5 -72 24 -16 30 -17 67 -3 29 10 42 21
44 37 9 56 -74 83 -116 38z"/>
<path d="M2523 6388 c-18 -9 -23 -20 -23 -50 l0 -38 58 0 c82 0 107 33 59 78
-25 24 -59 27 -94 10z"/>
<path d="M2322 6259 c-26 -17 -31 -26 -26 -43 15 -51 62 -74 111 -55 58 22 60
70 3 99 -48 25 -47 25 -88 -1z"/>
<path d="M2509 6258 c-24 -20 -51 -68 -45 -81 3 -9 5 -9 5 1 1 6 6 12 12 12 6
0 8 -7 5 -16 -3 -8 -2 -12 4 -9 5 3 29 0 54 -6 39 -10 50 -9 70 5 38 25 42 53
11 82 -29 27 -90 33 -116 12z"/>
<path d="M4042 7139 c-51 -19 -49 -102 3 -115 53 -13 102 34 85 81 -9 26 -58
45 -88 34z"/>
<path d="M3794 6951 c-29 -18 -52 -45 -80 -96 -9 -15 -19 -19 -48 -17 -25 3
-44 -2 -57 -14 -48 -43 0 -121 67 -108 29 5 35 3 43 -19 29 -74 156 -110 243
-68 61 29 98 89 98 158 0 30 -6 66 -14 81 -19 36 -65 78 -99 91 -45 17 -118
13 -153 -8z m124 -107 c32 -22 30 -76 -4 -103 -33 -26 -42 -26 -71 1 -29 27
-29 57 -2 92 23 30 45 33 77 10z"/>
<path d="M4230 6952 c-43 -35 -17 -112 37 -112 27 0 73 41 73 65 0 22 -45 65
-68 65 -11 0 -30 -8 -42 -18z"/>
<path d="M5842 6914 c-43 -30 -18 -104 36 -104 23 0 52 34 52 62 0 21 -34 58
-53 58 -7 0 -23 -7 -35 -16z"/>
<path d="M6509 6861 c-35 -35 -35 -42 -8 -67 14 -13 36 -19 68 -19 40 0 46 -3
49 -22 5 -33 -40 -53 -66 -30 -10 9 -34 18 -53 19 -32 3 -34 1 -37 -29 -4 -42
19 -76 68 -98 131 -59 262 103 172 214 -37 46 -66 61 -120 61 -35 0 -49 -6
-73 -29z"/>
<path d="M3447 6632 c-37 -40 -9 -112 43 -112 35 0 70 34 70 67 0 53 -78 84
-113 45z"/>
<path d="M1776 6378 c-13 -18 -16 -55 -16 -195 0 -160 2 -175 20 -193 28 -28
64 -25 89 6 19 25 21 40 21 193 0 191 -6 211 -65 211 -24 0 -39 -7 -49 -22z"/>
<path d="M8416 6134 c-20 -20 -21 -68 -1 -84 24 -20 67 -15 87 10 23 29 23 45
-2 70 -24 24 -63 26 -84 4z"/>
<path d="M2901 5934 c-19 -24 -21 -40 -21 -155 l0 -129 -49 0 c-28 0 -53 5
-56 10 -12 19 -83 11 -105 -12 -47 -51 -8 -123 65 -116 22 3 45 6 50 7 6 2 29
3 53 2 l42 -1 0 -124 0 -123 -40 -27 c-57 -37 -83 -94 -78 -168 5 -64 25 -99
77 -135 50 -34 101 -38 160 -13 68 30 103 77 109 147 6 66 -9 103 -59 148
l-39 35 0 129 c0 121 1 130 20 136 47 15 50 86 5 107 -25 11 -25 13 -25 138 0
113 -2 128 -20 148 -28 30 -64 28 -89 -4z m81 -771 c34 -31 18 -82 -32 -103
-27 -11 -33 -10 -50 5 -24 22 -26 72 -3 97 20 22 61 23 85 1z"/>
<path d="M4190 5944 c-46 -20 -68 -41 -92 -88 -23 -44 -18 -80 13 -97 32 -17
62 -3 87 41 19 34 27 40 56 40 26 0 41 -8 60 -31 14 -17 26 -35 26 -40 0 -13
74 -11 88 3 20 20 14 70 -14 110 -48 69 -146 96 -224 62z"/>
<path d="M8342 5950 c-99 -23 -134 -156 -61 -229 32 -33 83 -47 126 -36 15 3
44 23 65 44 33 34 38 45 38 86 0 60 -24 100 -75 125 -45 22 -44 22 -93 10z
m58 -130 c0 -31 -25 -47 -46 -29 -19 16 -17 46 3 57 25 15 43 3 43 -28z"/>
<path d="M4509 5890 c-28 -25 -31 -54 -9 -82 l20 -26 379 -1 c209 -1 391 1
406 5 14 3 32 19 40 35 14 26 13 30 -8 53 l-22 26 -394 2 c-340 3 -397 1 -412
-12z"/>
<path d="M6875 5845 c-29 -28 -32 -55 -7 -83 27 -31 55 -35 85 -11 36 28 36
70 1 98 -34 27 -50 26 -79 -4z"/>
<path d="M1802 5780 c-80 -17 -155 -80 -191 -160 -19 -41 -21 -66 -21 -252 l0
-208 -48 0 c-50 0 -71 -13 -85 -53 -12 -32 35 -67 87 -67 l45 0 3 -317 3 -318
29 -60 c26 -53 30 -74 35 -182 6 -114 8 -124 36 -164 79 -113 269 -130 368
-34 55 53 70 90 75 181 l4 82 117 3 c105 4 120 7 163 31 25 16 60 45 77 65 62
75 62 72 59 699 -3 563 -3 569 -25 610 -12 22 -40 57 -63 78 -75 68 -86 70
-370 72 -140 2 -274 -1 -298 -6z m338 -120 c0 -15 -36 -30 -75 -30 -36 0 -75
14 -75 28 0 4 34 8 75 9 43 2 75 -1 75 -7z m225 -29 c17 -9 38 -32 48 -51 16
-32 17 -76 15 -580 l-3 -545 -23 -33 c-33 -45 -73 -63 -159 -69 l-75 -6 -34
36 c-25 28 -41 37 -65 37 -37 0 -69 -24 -69 -52 0 -20 -13 -22 -135 -18 -80 2
-98 13 -126 75 -17 37 -19 77 -19 578 0 596 -1 588 64 628 48 29 68 24 104
-27 39 -54 97 -83 167 -84 95 0 148 29 218 118 19 25 37 24 92 -7z m-469
-1391 c91 0 94 1 95 23 1 14 4 9 11 -16 6 -21 7 -66 3 -102 -5 -53 -11 -68
-32 -85 -53 -41 -107 -38 -154 10 -28 28 -29 31 -28 127 1 54 4 86 6 71 l4
-28 95 0z"/>
<path d="M1860 5382 c-36 -5 -50 -20 -50 -52 0 -52 14 -55 254 -56 251 -1 270
3 264 59 -5 53 -27 58 -248 55 -107 -2 -206 -5 -220 -6z"/>
<path d="M1813 5134 c-15 -24 -15 -29 -2 -53 l15 -26 236 -3 c205 -2 238 0
252 14 23 22 21 71 -3 84 -12 6 -110 10 -250 10 l-231 0 -17 -26z"/>
<path d="M1815 4911 c-8 -17 -12 -36 -9 -44 12 -33 46 -38 273 -35 l224 3 20
27 c19 25 19 28 3 52 l-16 26 -240 0 -239 0 -16 -29z"/>
<path d="M1829 4710 c-31 -27 -32 -56 -3 -79 25 -20 38 -21 243 -21 180 0 220
3 239 16 25 17 30 65 9 82 -8 7 -99 12 -242 14 -192 3 -232 1 -246 -12z"/>
<path d="M7400 5671 c-15 -29 -12 -56 8 -74 22 -20 33 -21 66 -5 33 15 42 43
22 73 -21 32 -80 35 -96 6z"/>
<path d="M7780 5644 c-134 -24 -229 -74 -317 -168 -76 -79 -118 -157 -137
-250 l-13 -61 -62 -5 -63 -5 -14 35 c-21 49 -50 77 -100 96 -116 44 -244 -45
-244 -170 0 -81 33 -134 105 -167 75 -35 150 -18 212 48 41 44 41 44 104 41
l62 -3 14 -55 c21 -87 70 -176 129 -237 53 -54 54 -57 44 -89 -13 -37 -2 -67
30 -84 29 -16 46 -12 80 16 l31 27 57 -18 c31 -10 63 -19 70 -21 9 -2 12 -33
12 -109 0 -92 3 -108 20 -125 25 -25 61 -26 91 -1 21 17 24 28 26 98 3 156 -2
140 47 147 81 12 183 70 261 149 77 77 119 146 145 242 l17 60 171 3 171 2 20
27 c27 34 26 47 -5 72 -25 19 -40 21 -190 21 l-163 0 -6 38 c-31 187 -173 355
-354 418 -65 23 -199 37 -251 28z m236 -159 c75 -37 167 -125 198 -188 100
-207 15 -455 -187 -551 -253 -119 -530 26 -579 304 -26 150 57 330 190 407
119 70 269 81 378 28z m-958 -317 c31 -31 -8 -118 -53 -118 -45 0 -71 76 -38
112 18 20 73 24 91 6z"/>
<path d="M7805 5361 c-45 -12 -107 -46 -131 -73 -103 -112 -88 -278 32 -370
120 -92 277 -65 364 64 28 40 35 61 38 113 2 35 -1 80 -8 101 -16 46 -82 119
-131 144 -42 22 -121 32 -164 21z m124 -129 c39 -28 71 -81 71 -116 -1 -70
-75 -146 -143 -146 -80 0 -156 88 -141 164 7 43 35 81 78 108 37 23 96 19 135
-10z"/>
<path d="M8528 5633 c-31 -12 -38 -20 -38 -43 0 -51 33 -60 112 -29 33 13 41
32 26 64 -13 29 -44 32 -100 8z"/>
<path d="M4276 5461 c-16 -18 -18 -46 -18 -271 0 -226 2 -253 17 -271 16 -17
32 -19 141 -19 136 0 154 7 154 60 0 44 -31 60 -117 60 l-73 0 0 213 c0 195
-2 215 -18 230 -25 23 -65 21 -86 -2z"/>
<path d="M8542 5394 c-28 -19 -30 -74 -3 -98 28 -25 79 -17 103 15 19 24 19
28 4 56 -23 45 -63 56 -104 27z"/>
<path d="M4612 5284 c-27 -19 -28 -46 -3 -139 32 -123 68 -174 135 -191 32 -8
32 -15 2 -51 -20 -23 -30 -27 -66 -24 -93 6 -111 -86 -23 -120 95 -36 168 18
237 177 100 230 117 324 64 354 -41 22 -80 -1 -91 -55 -20 -95 -30 -123 -50
-149 -41 -50 -73 -6 -97 129 -14 82 -54 107 -108 69z"/>
<path d="M5731 5286 c-88 -29 -135 -103 -129 -202 5 -78 38 -133 100 -163 85
-41 204 -20 238 41 14 25 13 29 -9 52 -28 30 -55 33 -99 10 -32 -15 -64 -12
-89 8 -28 22 -8 28 96 28 121 0 141 8 141 59 0 43 -41 113 -85 143 -49 34
-106 42 -164 24z m83 -102 c9 -4 21 -15 27 -25 9 -18 5 -19 -51 -19 -43 0 -60
4 -60 13 0 31 44 47 84 31z"/>
<path d="M5042 5278 c-8 -8 -12 -63 -12 -179 0 -187 4 -199 64 -199 51 0 60
20 66 139 l5 106 30 0 30 0 5 -113 c6 -125 9 -132 72 -132 50 0 58 18 58 132
0 100 7 118 46 118 22 0 22 -4 26 -115 3 -129 6 -135 71 -135 53 0 60 25 54
175 -5 135 -15 166 -64 196 -44 27 -113 22 -148 -11 l-24 -23 -31 27 c-36 30
-68 33 -112 10 -28 -15 -32 -15 -40 0 -11 19 -78 22 -96 4z"/>
<path d="M7158 4856 c-34 -17 -38 -78 -6 -100 30 -21 54 -20 78 4 22 22 27 72
8 87 -22 17 -56 21 -80 9z"/>
<path d="M2712 4787 c-21 -22 -22 -32 -22 -218 0 -219 5 -237 74 -294 34 -27
44 -30 111 -30 67 0 76 3 112 31 74 60 78 75 78 292 l0 194 -28 24 c-27 23
-35 24 -166 24 -131 0 -139 -1 -159 -23z m230 -227 c2 -66 1 -129 -2 -141 -7
-30 -53 -63 -77 -55 -38 12 -53 57 -53 164 0 56 4 112 10 126 9 24 15 26 64
26 l55 0 3 -120z"/>
<path d="M2853 4613 c-8 -2 -13 -22 -13 -44 0 -39 1 -40 33 -37 27 3 32 7 35
33 3 19 -2 33 -14 42 -19 14 -22 14 -41 6z"/>
<path d="M8470 4787 c-58 -29 -165 -134 -187 -183 -13 -28 -19 -77 -23 -179
l-5 -140 -53 -1 c-39 -1 -56 -6 -67 -20 -37 -49 -3 -94 75 -102 l50 -5 0 -106
c0 -111 3 -121 34 -138 22 -12 65 -1 78 20 4 7 8 60 8 118 l0 106 52 5 c117
12 118 116 1 123 l-48 3 0 124 c1 95 5 130 18 154 20 39 66 78 127 109 60 30
80 50 80 79 0 56 -65 71 -140 33z"/>
<path d="M8501 4534 c-27 -35 -26 -59 4 -89 45 -46 115 -19 115 45 0 65 -79
94 -119 44z"/>
<path d="M5043 4460 c-25 -10 -43 -39 -43 -69 0 -22 44 -61 70 -61 30 0 70 39
70 69 0 46 -53 78 -97 61z"/>
<path d="M5683 4460 c-25 -10 -43 -39 -43 -69 0 -23 44 -61 72 -61 27 0 68 44
68 73 0 42 -54 74 -97 57z"/>
<path d="M6002 4460 c-20 -9 -42 -45 -42 -71 0 -19 49 -59 73 -59 24 0 59 31
70 62 7 21 -28 64 -58 71 -11 3 -30 1 -43 -3z"/>
<path d="M4422 4448 c-7 -7 -12 -28 -12 -48 0 -30 5 -39 25 -48 33 -15 46 -15
67 1 28 22 33 62 9 86 -23 23 -70 28 -89 9z"/>
<path d="M4707 4442 c-37 -40 -9 -102 46 -102 33 0 70 45 61 74 -13 46 -76 62
-107 28z"/>
<path d="M5332 4444 c-45 -31 -17 -104 41 -104 30 0 67 35 67 62 0 25 -35 58
-63 58 -12 0 -33 -7 -45 -16z"/>
<path d="M7555 4453 c-57 -5 -75 -16 -75 -48 0 -37 24 -48 91 -42 64 6 89 19
89 47 0 18 -31 51 -46 48 -5 -1 -31 -3 -59 -5z"/>
<path d="M3212 4260 c-46 -43 -15 -120 48 -120 65 0 94 79 44 119 -34 27 -64
27 -92 1z"/>
<path d="M7497 4229 c-79 -10 -205 -57 -270 -100 -58 -38 -158 -144 -180 -191
-26 -55 -22 -85 13 -103 39 -20 58 -10 109 59 103 140 238 206 415 206 231 -1
428 -145 490 -359 20 -70 21 -209 1 -286 -44 -169 -200 -318 -376 -360 -120
-28 -240 -12 -353 47 -83 44 -182 146 -227 233 l-35 70 -93 3 c-104 3 -136 -9
-147 -54 -5 -18 0 -32 17 -50 19 -20 32 -24 81 -24 56 0 58 -1 76 -35 24 -47
106 -142 162 -188 62 -51 165 -104 241 -123 98 -26 247 -24 339 5 135 41 234
108 320 216 85 107 139 253 140 378 l0 47 88 0 c80 0 91 2 110 23 27 29 28 61
2 87 -17 17 -33 20 -114 20 l-94 0 -27 70 c-87 228 -283 378 -536 410 -46 5
-84 9 -84 9 0 -1 -31 -5 -68 -10z"/>
<path d="M6891 4154 c-12 -15 -21 -32 -21 -39 0 -7 9 -24 21 -39 39 -50 119
-24 119 38 0 65 -79 91 -119 40z"/>
<path d="M2271 4078 c-14 -7 -29 -26 -34 -41 -8 -24 -5 -33 14 -53 21 -23 29
-24 136 -24 114 0 114 0 108 -22 -31 -105 -150 -185 -291 -195 -103 -8 -104
-10 -104 -188 0 -78 5 -168 11 -201 41 -228 200 -436 409 -534 63 -30 86 -35
145 -35 62 0 79 5 156 43 67 33 105 61 165 121 89 88 133 156 172 263 l27 73
3 376 c3 361 2 376 -17 400 l-19 24 -429 3 c-327 1 -434 -1 -452 -10z m787
-363 c5 -457 -20 -549 -191 -693 -134 -113 -220 -128 -338 -57 -81 50 -146
114 -201 201 -72 112 -80 142 -87 301 l-6 143 50 10 c64 13 147 52 198 92 51
41 122 137 137 186 6 20 13 43 16 50 3 10 50 12 211 10 l208 -3 3 -240z"/>
<path d="M2665 3411 c-113 -113 -201 -209 -203 -221 -4 -27 24 -60 51 -60 14
0 93 72 224 202 166 165 203 207 203 230 0 28 -23 48 -57 48 -10 0 -106 -88
-218 -199z"/>
<path d="M2371 3424 c-25 -32 -26 -52 -5 -82 20 -29 74 -30 99 -2 23 25 22 80
-1 97 -30 22 -70 16 -93 -13z"/>
<path d="M2792 3237 c-58 -60 -55 -117 6 -117 29 0 102 69 102 97 0 26 -28 63
-48 63 -10 0 -37 -19 -60 -43z"/>
<path d="M7736 3955 c-9 -9 -16 -20 -16 -23 0 -4 27 -31 59 -60 86 -76 123
-153 123 -261 0 -72 -3 -89 -31 -146 -37 -74 -72 -107 -161 -149 -90 -43 -169
-42 -261 1 -121 56 -181 143 -187 271 -6 114 25 199 102 280 56 59 59 64 43
80 -16 16 -20 15 -63 -7 -56 -30 -123 -105 -160 -180 -33 -67 -43 -180 -24
-263 49 -210 276 -357 492 -318 144 25 250 106 316 239 36 73 37 78 37 185 0
100 -3 116 -27 166 -63 129 -196 230 -242 185z"/>
<path d="M7515 3896 c-60 -19 -96 -40 -139 -82 -113 -110 -117 -294 -8 -407
130 -135 352 -119 457 34 44 64 62 152 46 224 -23 104 -112 198 -215 230 -59
18 -87 18 -141 1z m131 -115 c53 -24 102 -77 115 -124 36 -133 -89 -263 -220
-228 -151 40 -191 232 -67 326 61 47 110 54 172 26z"/>
<path d="M7524 3633 c-15 -34 -14 -38 4 -62 25 -35 67 -39 98 -10 47 44 17
109 -52 109 -31 0 -37 -4 -50 -37z"/>
<path d="M1860 3680 c-30 -30 -27 -83 6 -109 34 -27 57 -26 90 2 54 47 24 127
-47 127 -16 0 -38 -9 -49 -20z"/>
<path d="M3320 3350 c-41 -41 -10 -110 50 -110 34 0 70 33 70 65 0 29 -40 65
-73 65 -15 0 -36 -9 -47 -20z"/>
<path d="M6405 3256 c-23 -23 -25 -33 -25 -111 l0 -85 -60 0 c-47 0 -64 -4
-80 -20 -25 -25 -25 -55 0 -80 19 -19 33 -19 401 -18 357 2 382 3 405 21 13
10 24 29 24 42 0 35 -36 55 -97 55 l-53 0 0 79 c0 70 -3 83 -24 108 l-24 28
-221 3 -221 3 -25 -25z m378 -188 c-2 -5 -62 -8 -134 -8 l-129 0 0 45 0 44
128 3 127 3 6 -40 c4 -22 5 -43 2 -47z"/>
<path d="M3500 3250 c-61 -61 24 -166 90 -112 28 23 34 88 11 116 -19 23 -76
21 -101 -4z"/>
<path d="M4571 3257 c-36 -44 -17 -120 33 -133 28 -7 81 18 90 41 12 31 6 65
-14 85 -23 23 -91 27 -109 7z"/>
<path d="M5982 3034 c-39 -27 -23 -78 30 -97 20 -7 54 19 63 50 4 15 0 28 -14
42 -25 25 -49 27 -79 5z"/>
<path d="M3365 3020 c-15 -17 -18 -35 -17 -94 l3 -73 -73 -5 c-144 -10 -246
-94 -297 -244 -17 -53 -22 -59 -50 -62 -24 -3 -37 4 -60 30 -27 30 -35 33 -86
33 -53 0 -59 -3 -91 -37 -27 -30 -34 -46 -34 -78 0 -23 7 -54 15 -70 33 -64
137 -83 189 -35 19 18 38 25 65 25 36 0 39 -3 45 -32 12 -63 65 -159 119 -212
123 -123 308 -167 457 -110 119 47 195 118 252 240 30 63 33 77 33 164 -1 113
-20 186 -70 260 -19 29 -35 54 -35 56 0 2 15 25 34 51 50 71 78 131 71 154
-21 66 -243 78 -328 17 -16 -11 -30 -18 -31 -16 -1 1 -10 15 -19 31 -21 33
-65 37 -92 7z m315 -108 c0 -15 -73 -82 -90 -82 -9 0 -39 -3 -66 -6 l-49 -6
27 27 c15 16 56 38 95 51 75 26 83 27 83 16z m-308 -217 l77 -24 71 21 71 21
30 -29 c33 -32 85 -131 75 -142 -11 -10 -322 -14 -467 -5 l-125 8 8 30 c10 40
74 114 112 131 43 18 60 17 148 -11z m327 -291 c10 -9 -35 -101 -67 -136 -73
-80 -195 -122 -289 -99 -94 24 -185 97 -218 177 -25 60 -22 63 53 66 88 4 516
-2 521 -8z"/>
<path d="M6142 2927 c-22 -23 -22 -28 -22 -345 0 -320 0 -321 23 -347 l23 -27
217 1 217 2 0 -35 c0 -62 69 -94 118 -54 6 6 15 28 18 50 l7 39 151 -1 c240
-1 224 -3 257 29 29 29 29 30 29 152 l0 122 202 -5 c249 -6 240 -11 231 119
-6 102 -25 149 -72 180 -99 66 -233 15 -262 -100 -6 -26 -17 -47 -24 -47 -7 0
-27 -3 -44 -6 l-31 -6 0 111 c0 62 -5 121 -11 132 -15 28 -55 42 -82 28 -34
-18 -37 -28 -37 -116 l0 -83 -155 0 -155 0 0 59 c0 66 -22 104 -66 115 -46 12
-57 -10 -58 -116 -2 -108 7 -154 34 -168 11 -6 100 -10 210 -10 l191 0 -3
-127 -3 -128 -397 -2 -398 -3 0 131 0 130 72 -3 c71 -3 72 -3 80 -34 17 -66
69 -127 138 -162 60 -31 71 -33 147 -30 92 3 136 25 141 71 4 33 -34 71 -63
62 -144 -45 -254 32 -243 170 3 38 12 64 31 89 43 56 34 87 -29 100 -27 6 -35
2 -66 -32 -20 -22 -42 -56 -49 -76 l-13 -36 -72 0 -72 0 -4 101 c-2 86 -6 103
-22 115 -29 20 -59 17 -84 -9z m1342 -223 c35 -34 6 -94 -45 -94 -31 0 -49 23
-49 64 0 42 62 62 94 30z"/>
<path d="M7710 2808 c-25 -27 -26 -50 -2 -71 24 -22 65 -21 85 1 22 25 21 48
-3 72 -26 26 -54 25 -80 -2z"/>
<path d="M6266 2563 c-6 -14 -5 -15 5 -6 7 7 10 15 7 18 -3 3 -9 -2 -12 -12z"/>
<path d="M6321 2573 c11 -3 15 -11 12 -26 -4 -18 -3 -19 6 -7 17 24 13 40 -11
39 -16 -1 -18 -3 -7 -6z"/>
<path d="M6340 2410 c0 -19 3 -21 12 -12 9 9 9 15 0 24 -9 9 -12 7 -12 -12z"/>
<path d="M3967 2282 c-35 -39 -10 -92 42 -92 34 0 54 21 54 55 0 14 -6 32 -13
40 -17 21 -63 19 -83 -3z"/>
<path d="M6912 2110 c-15 -25 -16 -62 0 -78 31 -31 98 0 98 46 0 48 -73 72
-98 32z"/>
<path d="M3848 2060 c-69 -21 -108 -73 -108 -145 0 -125 118 -193 225 -130
124 72 85 253 -60 278 -16 3 -42 2 -57 -3z m76 -132 c12 -33 -6 -58 -40 -58
-35 0 -50 35 -29 66 21 33 56 29 69 -8z"/>
<path d="M6182 2040 c-44 -27 -72 -76 -72 -128 0 -52 19 -91 60 -126 44 -36
121 -37 171 -1 42 31 69 79 69 123 0 46 -35 109 -73 132 -42 26 -112 26 -155
0z m102 -96 c31 -31 13 -74 -31 -74 -40 0 -50 50 -15 78 21 16 27 15 46 -4z"/>
<path d="M6566 1984 c-22 -21 -20 -60 4 -84 23 -23 33 -24 63 -9 28 15 37 28
37 55 0 46 -71 72 -104 38z"/>
<path d="M4152 1747 c-29 -31 -28 -72 3 -102 28 -29 45 -31 84 -10 48 24 55
72 16 110 -31 32 -74 33 -103 2z"/>
<path d="M5871 1734 c-62 -79 43 -170 114 -99 49 49 16 125 -55 125 -30 0 -43
-6 -59 -26z"/>
<path d="M4586 1634 c-18 -18 -21 -56 -6 -85 14 -25 71 -26 93 -1 37 41 11
102 -43 102 -16 0 -36 -7 -44 -16z"/>
<path d="M5546 1628 c-33 -47 -10 -98 45 -98 33 0 69 31 69 60 0 53 -84 81
-114 38z"/>
</g>
</svg>
